<svg width="24" height="16" viewBox="0 0 24 16" fill="none" xmlns="http://www.w3.org/2000/svg">
<g id="Iconly/Bold/3-User">
<g id="3-User">
<path id="3-Friends" d="M12.2619 10.5389C15.8088 10.5389 18.8373 11.0829 18.8373 13.2596C18.8373 15.4355 15.8282 15.9993 12.2619 15.9993C8.7151 15.9993 5.68659 15.4553 5.68659 13.2794C5.68659 11.1027 8.69567 10.5389 12.2619 10.5389ZM17.9329 9.22815C19.2889 9.20383 20.7467 9.38395 21.2854 9.51184C22.4266 9.72888 23.1773 10.172 23.4883 10.8159C23.7511 11.3446 23.7511 11.9579 23.4883 12.4856C23.0125 13.4844 21.4788 13.805 20.8827 13.8879C20.7596 13.9059 20.6606 13.8023 20.6736 13.6825C20.9781 10.915 18.5558 9.6028 17.9292 9.3011C17.9024 9.28759 17.8968 9.26687 17.8996 9.25426C17.9014 9.24526 17.9125 9.23085 17.9329 9.22815ZM6.69705 9.22851C6.71741 9.23121 6.7276 9.24562 6.72945 9.25372C6.73222 9.26723 6.72667 9.28704 6.70075 9.30145C6.07321 9.60316 3.65095 10.9153 3.95547 13.682C3.96843 13.8027 3.87032 13.9054 3.74721 13.8882C3.15114 13.8054 1.61744 13.4848 1.14169 12.486C0.8779 11.9573 0.8779 11.3449 1.14169 10.8163C1.45269 10.1723 2.20241 9.72924 3.34366 9.5113C3.88327 9.38431 5.34014 9.20419 6.69705 9.22851ZM12.2619 -0.000732422C14.6768 -0.000732422 16.6131 1.88154 16.6131 4.23212C16.6131 6.5818 14.6768 8.46587 12.2619 8.46587C9.84709 8.46587 7.91077 6.5818 7.91077 4.23212C7.91077 1.88154 9.84709 -0.000732422 12.2619 -0.000732422ZM18.1689 0.705163C20.5014 0.705163 22.3331 2.8405 21.7093 5.219C21.2882 6.82028 19.7637 7.8839 18.0653 7.84067C17.895 7.83617 17.7274 7.82086 17.5655 7.79384C17.4479 7.77403 17.3887 7.64524 17.4553 7.54977C18.1032 6.62215 18.4725 5.5063 18.4725 4.30849C18.4725 3.05845 18.069 1.89306 17.3683 0.93752C17.3461 0.9078 17.3294 0.861869 17.3516 0.827646C17.3702 0.799727 17.4044 0.785317 17.4368 0.778112C17.6728 0.731281 17.9153 0.705163 18.1689 0.705163ZM6.45964 0.705073C6.71325 0.705073 6.95575 0.731191 7.1927 0.778022C7.22417 0.785227 7.25934 0.800537 7.27786 0.827556C7.29914 0.861779 7.28341 0.90771 7.2612 0.93743C6.56053 1.89297 6.15697 3.05836 6.15697 4.3084C6.15697 5.50621 6.52628 6.62206 7.17419 7.54968C7.24083 7.64515 7.1816 7.77394 7.06405 7.79375C6.90114 7.82167 6.73454 7.83608 6.56423 7.84058C4.86578 7.88381 3.34134 6.82019 2.9202 5.21891C2.29543 2.84041 4.12717 0.705073 6.45964 0.705073Z" fill="black" fill-opacity="0.4"/>
</g>
</g>
</svg>
