<svg width="24" height="24" viewBox="0 0 24 24" fill="none" xmlns="http://www.w3.org/2000/svg">
<g id="3 User">
<g id="Iconly/Two-tone/3-User">
<g id="3-User">
<path id="Stroke-1" opacity="0.4" d="M17.8877 10.8967C19.2827 10.7007 20.3567 9.50473 20.3597 8.05573C20.3597 6.62773 19.3187 5.44373 17.9537 5.21973" stroke="black" stroke-width="1.5" stroke-linecap="round" stroke-linejoin="round"/>
<path id="Stroke-3" d="M19.7285 14.2505C21.0795 14.4525 22.0225 14.9255 22.0225 15.9005C22.0225 16.5715 21.5785 17.0075 20.8605 17.2815" stroke="black" stroke-width="1.5" stroke-linecap="round" stroke-linejoin="round"/>
<path id="Stroke-5" fill-rule="evenodd" clip-rule="evenodd" d="M11.8867 14.6638C8.6727 14.6638 5.9277 15.1508 5.9277 17.0958C5.9277 19.0398 8.6557 19.5408 11.8867 19.5408C15.1007 19.5408 17.8447 19.0588 17.8447 17.1128C17.8447 15.1668 15.1177 14.6638 11.8867 14.6638Z" stroke="black" stroke-width="1.5" stroke-linecap="round" stroke-linejoin="round"/>
<path id="Stroke-7" opacity="0.4" fill-rule="evenodd" clip-rule="evenodd" d="M11.8867 11.888C13.9957 11.888 15.7057 10.179 15.7057 8.069C15.7057 5.96 13.9957 4.25 11.8867 4.25C9.77771 4.25 8.06769 5.96 8.06769 8.069C8.05971 10.171 9.75671 11.881 11.8587 11.888H11.8867Z" stroke="black" stroke-width="1.5" stroke-linecap="round" stroke-linejoin="round"/>
<path id="Stroke-9" opacity="0.4" d="M5.88481 10.8967C4.48881 10.7007 3.41581 9.50473 3.41281 8.05573C3.41281 6.62773 4.45381 5.44373 5.81881 5.21973" stroke="black" stroke-width="1.5" stroke-linecap="round" stroke-linejoin="round"/>
<path id="Stroke-11" d="M4.04391 14.2505C2.69291 14.4525 1.74991 14.9255 1.74991 15.9005C1.74991 16.5715 2.19391 17.0075 2.91191 17.2815" stroke="black" stroke-width="1.5" stroke-linecap="round" stroke-linejoin="round"/>
</g>
</g>
</g>
</svg>
