<svg width="24" height="24" viewBox="0 0 24 24" fill="none" xmlns="http://www.w3.org/2000/svg">
<g id="Location">
<g id="Iconly/Two-tone/Location">
<g id="Location_2">
<path id="Path_33958" fill-rule="evenodd" clip-rule="evenodd" d="M4.23914 10.3913C4.25354 6.15069 7.7029 2.7247 11.9435 2.73906C16.1841 2.75351 19.6101 6.20287 19.5957 10.4435V10.5304C19.5435 13.2869 18.0044 15.8348 16.1174 17.8261C15.0382 18.9467 13.8331 19.9388 12.5261 20.7826C12.1766 21.0849 11.6582 21.0849 11.3087 20.7826C9.3602 19.5143 7.65007 17.9131 6.25653 16.0521C5.01449 14.4294 4.3093 12.4597 4.23914 10.4174V10.3913Z" stroke="black" stroke-width="1.5" stroke-linecap="round" stroke-linejoin="round"/>
<path id="Ellipse_740" opacity="0.4" d="M11.9174 12.9999C13.2765 12.9999 14.3783 11.8981 14.3783 10.539C14.3783 9.17989 13.2765 8.07812 11.9174 8.07812C10.5583 8.07812 9.45651 9.17989 9.45651 10.539C9.45651 11.8981 10.5583 12.9999 11.9174 12.9999Z" stroke="black" stroke-width="1.5" stroke-linecap="round" stroke-linejoin="round"/>
</g>
</g>
</g>
</svg>
