<svg width="14" height="14" viewBox="0 0 14 14" fill="none" xmlns="http://www.w3.org/2000/svg">
<path id="Vector" d="M8.63188 7.00004L13.4561 2.17582C13.6851 1.94727 13.8138 1.63712 13.8141 1.31362C13.8144 0.990108 13.6862 0.679738 13.4576 0.450781C13.2291 0.221825 12.9189 0.0930379 12.5954 0.0927522C12.2719 0.0924665 11.9615 0.220705 11.7326 0.449258L6.90836 5.27348L2.08415 0.449258C1.85519 0.220301 1.54466 0.0916748 1.22086 0.0916748C0.897071 0.0916748 0.586539 0.220301 0.357583 0.449258C0.128627 0.678214 0 0.988746 0 1.31254C0 1.63633 0.128627 1.94686 0.357583 2.17582L5.1818 7.00004L0.357583 11.8243C0.128627 12.0532 0 12.3637 0 12.6875C0 13.0113 0.128627 13.3219 0.357583 13.5508C0.586539 13.7798 0.897071 13.9084 1.22086 13.9084C1.54466 13.9084 1.85519 13.7798 2.08415 13.5508L6.90836 8.7266L11.7326 13.5508C11.9615 13.7798 12.2721 13.9084 12.5959 13.9084C12.9197 13.9084 13.2302 13.7798 13.4591 13.5508C13.6881 13.3219 13.8167 13.0113 13.8167 12.6875C13.8167 12.3637 13.6881 12.0532 13.4591 11.8243L8.63188 7.00004Z" fill="black"/>
</svg>
