<svg width="25" height="24" viewBox="0 0 25 24" fill="none" xmlns="http://www.w3.org/2000/svg">
<g id="2 User">
<g id="Iconly/Bold/2-User">
<g id="2-User">
<path id="2-Friends" d="M9.92386 14.8577C13.9092 14.8577 17.2732 15.4911 17.2732 17.9404C17.2732 20.3877 13.8877 21 9.92386 21L9.65312 20.999C5.78735 20.9703 2.57452 20.3109 2.57452 17.9174C2.57452 15.47 5.96005 14.8577 9.92386 14.8577ZM16.1442 13.3832C17.6599 13.3545 19.29 13.5586 19.8918 13.7023C21.1677 13.9466 22.0063 14.444 22.3536 15.1694C22.6482 15.7635 22.6482 16.4534 22.3536 17.0475C21.8223 18.1705 20.108 18.5318 19.4417 18.6247C19.3037 18.6439 19.1932 18.5289 19.2078 18.3928C19.5483 15.2805 16.8409 13.8048 16.1403 13.4656C16.111 13.4493 16.1041 13.4263 16.107 13.411C16.109 13.4014 16.1217 13.3861 16.1442 13.3832ZM9.92386 3C12.6235 3 14.7869 5.11865 14.7869 7.76241C14.7869 10.4062 12.6235 12.5248 9.92386 12.5248C7.22522 12.5248 5.06083 10.4062 5.06083 7.76241C5.06083 5.11865 7.22522 3 9.92386 3ZM16.4084 3.79543C19.0161 3.79543 21.063 6.19676 20.3654 8.87118C19.8947 10.6736 18.1912 11.8704 16.293 11.8216C16.1021 11.8177 15.9153 11.7995 15.7333 11.7698C15.6021 11.7468 15.5356 11.6021 15.611 11.4948C16.335 10.4513 16.7479 9.19506 16.7479 7.84875C16.7479 6.44206 16.2978 5.13216 15.5141 4.05607C15.4886 4.02253 15.4701 3.97174 15.4955 3.93246C15.5151 3.90179 15.5542 3.88454 15.5904 3.87688C15.8546 3.82418 16.1256 3.79543 16.4084 3.79543Z" fill="#C8DBCF"/>
</g>
</g>
</g>
</svg>
