<svg width="22" height="22" viewBox="0 0 22 22" fill="none" xmlns="http://www.w3.org/2000/svg">
<g id="Iconly/Bulk/Filter">
<g id="Filter">
<path id="Fill 1" opacity="0.8" d="M9.81155 14.4639H4.04791C3.31845 14.4639 2.72631 15.0456 2.72631 15.7623C2.72631 16.478 3.31845 17.0607 4.04791 17.0607H9.81155C10.541 17.0607 11.1332 16.478 11.1332 15.7623C11.1332 15.0456 10.541 14.4639 9.81155 14.4639Z" fill="#75A488"/>
<path id="Fill 4" opacity="0.8" d="M20.2567 6.06749C20.2567 5.35178 19.6645 4.77002 18.936 4.77002H13.1724C12.4429 4.77002 11.8508 5.35178 11.8508 6.06749C11.8508 6.78416 12.4429 7.36592 13.1724 7.36592H18.936C19.6645 7.36592 20.2567 6.78416 20.2567 6.06749Z" fill="#75A488"/>
<path id="Fill 6" d="M8.75521 6.06737C8.75521 7.70356 7.40634 9.02973 5.74094 9.02973C4.07652 9.02973 2.72667 7.70356 2.72667 6.06737C2.72667 4.43213 4.07652 3.10596 5.74094 3.10596C7.40634 3.10596 8.75521 4.43213 8.75521 6.06737Z" fill="#55836F"/>
<path id="Fill 9" d="M20.2567 15.727C20.2567 17.3622 18.9079 18.6884 17.2425 18.6884C15.578 18.6884 14.2282 17.3622 14.2282 15.727C14.2282 14.0908 15.578 12.7646 17.2425 12.7646C18.9079 12.7646 20.2567 14.0908 20.2567 15.727Z" fill="#55836F"/>
</g>
</g>
</svg>
