<svg width="21" height="22" viewBox="0 0 21 22" fill="none" xmlns="http://www.w3.org/2000/svg">
<path d="M7.71747 19.85V16.6338C7.71747 15.8128 8.3879 15.1472 9.21492 15.1472H12.2381C12.6352 15.1472 13.0161 15.3038 13.2969 15.5826C13.5778 15.8614 13.7355 16.2395 13.7355 16.6338V19.85C13.733 20.1913 13.8679 20.5195 14.1101 20.7618C14.3523 21.004 14.682 21.1402 15.0258 21.1402H17.0883C18.0516 21.1427 18.9763 20.7646 19.6583 20.0892C20.3403 19.4139 20.7237 18.4969 20.7236 17.5407V8.37816C20.7236 7.60569 20.3787 6.87296 19.7819 6.37737L12.7655 0.814419C11.545 -0.160956 9.79625 -0.129464 8.61217 0.889215L1.75591 6.37737C1.13083 6.85836 0.757232 7.59326 0.73877 8.37816V17.5313C0.73877 19.5245 2.36636 21.1402 4.3741 21.1402H6.38954C7.10367 21.1402 7.68404 20.5683 7.68921 19.8593L7.71747 19.85Z" fill="#C8DBCF"/>
</svg>
