<svg width="42" height="42" viewBox="0 0 42 42" fill="none" xmlns="http://www.w3.org/2000/svg">
<g clip-path="url(#clip0_285_812)">
<g clip-path="url(#clip1_285_812)">
<path fill-rule="evenodd" clip-rule="evenodd" d="M28.7575 3C29.5006 3 30.1036 3.60307 30.1036 4.34615L30.1045 5.86785C32.7251 6.04753 34.9017 6.9452 36.4422 8.48888C38.124 10.1778 39.0088 12.6063 38.9999 15.5194V31.8939C38.9999 37.8744 35.2019 41.5898 29.0904 41.5898H13.9095C7.79794 41.5898 4.00001 37.8224 4.00001 31.7575V15.5158C4.00001 9.87486 7.38702 6.25398 12.9109 5.86847L12.9121 4.34615C12.9121 3.60307 13.5151 3 14.2582 3C15.0013 3 15.6043 3.60307 15.6043 4.34615L15.6038 5.83409H27.4104L27.4113 4.34615C27.4113 3.60307 28.0144 3 28.7575 3ZM36.3076 18.9815H6.69231V31.7575C6.69231 36.3631 9.25537 38.8975 13.9095 38.8975H29.0904C33.7445 38.8975 36.3076 36.4098 36.3076 31.8939L36.3076 18.9815ZM29.4892 30.2753C30.2323 30.2753 30.8354 30.8784 30.8354 31.6215C30.8354 32.3645 30.2323 32.9676 29.4892 32.9676C28.7462 32.9676 28.1359 32.3645 28.1359 31.6215C28.1359 30.8784 28.73 30.2753 29.4731 30.2753H29.4892ZM21.5245 30.2753C22.2676 30.2753 22.8707 30.8784 22.8707 31.6215C22.8707 32.3645 22.2676 32.9676 21.5245 32.9676C20.7815 32.9676 20.1712 32.3645 20.1712 31.6215C20.1712 30.8784 20.7653 30.2753 21.5084 30.2753H21.5245ZM13.5431 30.2753C14.2862 30.2753 14.8893 30.8784 14.8893 31.6215C14.8893 32.3645 14.2862 32.9676 13.5431 32.9676C12.8001 32.9676 12.188 32.3645 12.188 31.6215C12.188 30.8784 12.7839 30.2753 13.527 30.2753H13.5431ZM29.4892 23.2992C30.2323 23.2992 30.8354 23.9023 30.8354 24.6454C30.8354 25.3884 30.2323 25.9915 29.4892 25.9915C28.7462 25.9915 28.1359 25.3884 28.1359 24.6454C28.1359 23.9023 28.73 23.2992 29.4731 23.2992H29.4892ZM21.5245 23.2992C22.2676 23.2992 22.8707 23.9023 22.8707 24.6454C22.8707 25.3884 22.2676 25.9915 21.5245 25.9915C20.7815 25.9915 20.1712 25.3884 20.1712 24.6454C20.1712 23.9023 20.7653 23.2992 21.5084 23.2992H21.5245ZM13.5431 23.2992C14.2862 23.2992 14.8893 23.9023 14.8893 24.6454C14.8893 25.3884 14.2862 25.9915 13.5431 25.9915C12.8001 25.9915 12.188 25.3884 12.188 24.6454C12.188 23.9023 12.7839 23.2992 13.527 23.2992H13.5431ZM27.4104 8.52639H15.6038L15.6043 10.253C15.6043 10.9961 15.0013 11.5992 14.2582 11.5992C13.5151 11.5992 12.9121 10.9961 12.9121 10.253L12.9111 8.56714C8.89018 8.90491 6.69231 11.3423 6.69231 15.5158V16.2892H36.3076L36.3076 15.5158C36.3148 13.2991 35.7189 11.576 34.536 10.3914C33.4977 9.35007 31.9799 8.72813 30.1052 8.568L30.1036 10.253C30.1036 10.9961 29.5006 11.5992 28.7575 11.5992C28.0144 11.5992 27.4113 10.9961 27.4113 10.253L27.4104 8.52639Z" fill="black"/>
<path fill-rule="evenodd" clip-rule="evenodd" d="M28.7575 3C29.5006 3 30.1036 3.60307 30.1036 4.34615L30.1045 5.86785C32.7251 6.04753 34.9017 6.9452 36.4422 8.48888C38.124 10.1778 39.0088 12.6063 38.9999 15.5194V31.8939C38.9999 37.8744 35.2019 41.5898 29.0904 41.5898H13.9095C7.79794 41.5898 4.00001 37.8224 4.00001 31.7575V15.5158C4.00001 9.87486 7.38702 6.25398 12.9109 5.86847L12.9121 4.34615C12.9121 3.60307 13.5151 3 14.2582 3C15.0013 3 15.6043 3.60307 15.6043 4.34615L15.6038 5.83409H27.4104L27.4113 4.34615C27.4113 3.60307 28.0144 3 28.7575 3ZM36.3076 18.9815H6.69231V31.7575C6.69231 36.3631 9.25537 38.8975 13.9095 38.8975H29.0904C33.7445 38.8975 36.3076 36.4098 36.3076 31.8939L36.3076 18.9815ZM29.4892 30.2753C30.2323 30.2753 30.8354 30.8784 30.8354 31.6215C30.8354 32.3645 30.2323 32.9676 29.4892 32.9676C28.7462 32.9676 28.1359 32.3645 28.1359 31.6215C28.1359 30.8784 28.73 30.2753 29.4731 30.2753H29.4892ZM21.5245 30.2753C22.2676 30.2753 22.8707 30.8784 22.8707 31.6215C22.8707 32.3645 22.2676 32.9676 21.5245 32.9676C20.7815 32.9676 20.1712 32.3645 20.1712 31.6215C20.1712 30.8784 20.7653 30.2753 21.5084 30.2753H21.5245ZM13.5431 30.2753C14.2862 30.2753 14.8893 30.8784 14.8893 31.6215C14.8893 32.3645 14.2862 32.9676 13.5431 32.9676C12.8001 32.9676 12.188 32.3645 12.188 31.6215C12.188 30.8784 12.7839 30.2753 13.527 30.2753H13.5431ZM29.4892 23.2992C30.2323 23.2992 30.8354 23.9023 30.8354 24.6454C30.8354 25.3884 30.2323 25.9915 29.4892 25.9915C28.7462 25.9915 28.1359 25.3884 28.1359 24.6454C28.1359 23.9023 28.73 23.2992 29.4731 23.2992H29.4892ZM21.5245 23.2992C22.2676 23.2992 22.8707 23.9023 22.8707 24.6454C22.8707 25.3884 22.2676 25.9915 21.5245 25.9915C20.7815 25.9915 20.1712 25.3884 20.1712 24.6454C20.1712 23.9023 20.7653 23.2992 21.5084 23.2992H21.5245ZM13.5431 23.2992C14.2862 23.2992 14.8893 23.9023 14.8893 24.6454C14.8893 25.3884 14.2862 25.9915 13.5431 25.9915C12.8001 25.9915 12.188 25.3884 12.188 24.6454C12.188 23.9023 12.7839 23.2992 13.527 23.2992H13.5431ZM27.4104 8.52639H15.6038L15.6043 10.253C15.6043 10.9961 15.0013 11.5992 14.2582 11.5992C13.5151 11.5992 12.9121 10.9961 12.9121 10.253L12.9111 8.56714C8.89018 8.90491 6.69231 11.3423 6.69231 15.5158V16.2892H36.3076L36.3076 15.5158C36.3148 13.2991 35.7189 11.576 34.536 10.3914C33.4977 9.35007 31.9799 8.72813 30.1052 8.568L30.1036 10.253C30.1036 10.9961 29.5006 11.5992 28.7575 11.5992C28.0144 11.5992 27.4113 10.9961 27.4113 10.253L27.4104 8.52639Z" fill="url(#paint0_linear_285_812)"/>
</g>
</g>
<defs>
<linearGradient id="paint0_linear_285_812" x1="21.5" y1="41.5904" x2="21.5" y2="3" gradientUnits="userSpaceOnUse">
<stop stop-color="#FEAA42"/>
<stop offset="0.01" stop-color="#FBA33F"/>
<stop offset="0.03" stop-color="#F59838"/>
<stop offset="0.06" stop-color="#F29135"/>
<stop offset="0.15" stop-color="#F18F34"/>
<stop offset="0.23" stop-color="#F28F3E"/>
<stop offset="0.37" stop-color="#F38E5A"/>
<stop offset="0.55" stop-color="#F68D88"/>
<stop offset="0.62" stop-color="#F78C9B"/>
<stop offset="1" stop-color="#F08672"/>
</linearGradient>
<clipPath id="clip0_285_812">
<rect width="41" height="41" fill="white" transform="translate(0.919498 0.442871)"/>
</clipPath>
<clipPath id="clip1_285_812">
<rect width="44" height="44" fill="white" transform="translate(-0.999996 2)"/>
</clipPath>
</defs>
</svg>
