<svg width="26" height="26" viewBox="0 0 26 26" fill="none" xmlns="http://www.w3.org/2000/svg">
<g id="Iconly/Bold/Home">
<path id="Home" d="M9.71744 21.85V18.6338C9.71744 17.8128 10.3879 17.1472 11.2149 17.1472H14.238C14.6352 17.1472 15.0161 17.3038 15.2969 17.5826C15.5777 17.8614 15.7355 18.2395 15.7355 18.6338V21.85C15.733 22.1913 15.8678 22.5195 16.1101 22.7618C16.3523 23.004 16.6819 23.1402 17.0258 23.1402H19.0883C20.0516 23.1427 20.9763 22.7646 21.6583 22.0892C22.3403 21.4139 22.7236 20.4969 22.7236 19.5407V10.3782C22.7236 9.60569 22.3787 8.87296 21.7818 8.37737L14.7655 2.81442C13.5449 1.83904 11.7962 1.87054 10.6121 2.88921L3.75588 8.37737C3.1308 8.85836 2.7572 9.59326 2.73874 10.3782V19.5313C2.73874 21.5245 4.36633 23.1402 6.37407 23.1402H8.38951C9.10364 23.1402 9.68401 22.5683 9.68918 21.8593L9.71744 21.85Z" fill="#1E1E1E"/>
</g>
</svg>
