<svg width="42" height="41" viewBox="0 0 42 41" fill="none" xmlns="http://www.w3.org/2000/svg">
<g clip-path="url(#clip0_285_803)">
<g clip-path="url(#clip1_285_803)">
<path d="M10.6473 35.1012C12.1982 35.1012 13.4688 36.3156 13.4688 37.8158C13.4688 39.298 12.1982 40.5125 10.6473 40.5125C9.07768 40.5125 7.80706 39.298 7.80706 37.8158C7.80706 36.3156 9.07768 35.1012 10.6473 35.1012ZM31.6685 35.1012C33.2194 35.1012 34.49 36.3156 34.49 37.8158C34.49 39.298 33.2194 40.5125 31.6685 40.5125C30.0989 40.5125 28.8283 39.298 28.8283 37.8158C28.8283 36.3156 30.0989 35.1012 31.6685 35.1012ZM2.14571 5.52774L6.60222 6.16888C7.23752 6.27782 7.70466 6.77608 7.76072 7.38328L8.11574 11.3837C8.1718 11.957 8.65763 12.3856 9.25556 12.3856H34.4904C35.6302 12.3856 36.3776 12.7606 37.125 13.5821C37.8725 14.4036 38.0033 15.5823 37.8351 16.6521L36.06 28.3675C35.7236 30.6195 33.7056 32.2786 31.3325 32.2786H10.9466C8.46143 32.2786 6.40602 30.4588 6.20048 28.1014L4.48141 8.63341L1.65989 8.16908C0.912469 8.04406 0.389273 7.34757 0.520072 6.63321C0.650871 5.90278 1.37961 5.4188 2.14571 5.52774ZM28.3428 18.9916H23.1669C22.3822 18.9916 21.7655 19.5809 21.7655 20.331C21.7655 21.0632 22.3822 21.6704 23.1669 21.6704H28.3428C29.1276 21.6704 29.7443 21.0632 29.7443 20.331C29.7443 19.5809 29.1276 18.9916 28.3428 18.9916Z" fill="#FEAA42"/>
<path d="M10.6473 35.1012C12.1982 35.1012 13.4688 36.3156 13.4688 37.8158C13.4688 39.298 12.1982 40.5125 10.6473 40.5125C9.07768 40.5125 7.80706 39.298 7.80706 37.8158C7.80706 36.3156 9.07768 35.1012 10.6473 35.1012ZM31.6685 35.1012C33.2194 35.1012 34.49 36.3156 34.49 37.8158C34.49 39.298 33.2194 40.5125 31.6685 40.5125C30.0989 40.5125 28.8283 39.298 28.8283 37.8158C28.8283 36.3156 30.0989 35.1012 31.6685 35.1012ZM2.14571 5.52774L6.60222 6.16888C7.23752 6.27782 7.70466 6.77608 7.76072 7.38328L8.11574 11.3837C8.1718 11.957 8.65763 12.3856 9.25556 12.3856H34.4904C35.6302 12.3856 36.3776 12.7606 37.125 13.5821C37.8725 14.4036 38.0033 15.5823 37.8351 16.6521L36.06 28.3675C35.7236 30.6195 33.7056 32.2786 31.3325 32.2786H10.9466C8.46143 32.2786 6.40602 30.4588 6.20048 28.1014L4.48141 8.63341L1.65989 8.16908C0.912469 8.04406 0.389273 7.34757 0.520072 6.63321C0.650871 5.90278 1.37961 5.4188 2.14571 5.52774ZM28.3428 18.9916H23.1669C22.3822 18.9916 21.7655 19.5809 21.7655 20.331C21.7655 21.0632 22.3822 21.6704 23.1669 21.6704H28.3428C29.1276 21.6704 29.7443 21.0632 29.7443 20.331C29.7443 19.5809 29.1276 18.9916 28.3428 18.9916Z" fill="url(#paint0_linear_285_803)"/>
</g>
</g>
<defs>
<linearGradient id="paint0_linear_285_803" x1="19.2001" y1="40.513" x2="19.2001" y2="5.51245" gradientUnits="userSpaceOnUse">
<stop stop-color="#FEAA42"/>
<stop offset="0.01" stop-color="#FBA33F"/>
<stop offset="0.03" stop-color="#F59838"/>
<stop offset="0.06" stop-color="#F29135"/>
<stop offset="0.15" stop-color="#F18F34"/>
<stop offset="0.23" stop-color="#F28F3E"/>
<stop offset="0.37" stop-color="#F38E5A"/>
<stop offset="0.55" stop-color="#F68D88"/>
<stop offset="0.62" stop-color="#F78C9B"/>
<stop offset="1" stop-color="#F08672"/>
</linearGradient>
<clipPath id="clip0_285_803">
<rect width="41" height="39.975" fill="white" transform="translate(0.321228 0.955322)"/>
</clipPath>
<clipPath id="clip1_285_803">
<rect width="58" height="55" fill="white" transform="translate(0.5 0.512451)"/>
</clipPath>
</defs>
</svg>
