<svg width="42" height="42" viewBox="0 0 42 42" fill="none" xmlns="http://www.w3.org/2000/svg">
<g id="Paper">
<g id="Iconly/Bold/Paper">
<g id="Paper_2">
<g id="Vector">
<path d="M25.0421 4C25.5183 4 25.8847 4.3885 25.8847 4.851V10.808C25.8847 14.1935 28.6505 16.9685 32.0025 16.987C33.3946 16.987 34.4936 17.0055 35.3361 17.0055L35.6482 17.0041C36.2113 16.9998 36.9694 16.987 37.6257 16.987C38.0837 16.987 38.45 17.357 38.45 17.8195V32.6935C38.45 37.2815 34.7683 41 30.2257 41H15.6455C10.8832 41 7 37.0965 7 32.2865V12.3435C7 7.7555 10.7 4 15.2609 4H25.0421ZM27.002 27.865H17.0376C16.2866 27.865 15.6639 28.4755 15.6639 29.234C15.6639 29.9925 16.2866 30.6215 17.0376 30.6215H27.002C27.753 30.6215 28.3757 29.9925 28.3757 29.234C28.3757 28.4755 27.753 27.865 27.002 27.865ZM23.2287 18.615H17.0376C16.2866 18.615 15.6639 19.244 15.6639 20.0025C15.6639 20.761 16.2866 21.3715 17.0376 21.3715H23.2287C23.9797 21.3715 24.6025 20.761 24.6025 20.0025C24.6025 19.244 23.9797 18.615 23.2287 18.615ZM28.5538 5.6761C28.5538 4.87875 29.5118 4.48285 30.0594 5.0582C32.0395 7.1376 35.4995 10.7728 37.4338 12.8041C37.9686 13.3647 37.5767 14.2952 36.8055 14.2971C35.2999 14.3027 33.525 14.2971 32.2483 14.2842C30.2224 14.2842 28.5538 12.5988 28.5538 10.5527V5.6761Z" fill="black"/>
<path d="M25.0421 4C25.5183 4 25.8847 4.3885 25.8847 4.851V10.808C25.8847 14.1935 28.6505 16.9685 32.0025 16.987C33.3946 16.987 34.4936 17.0055 35.3361 17.0055L35.6482 17.0041C36.2113 16.9998 36.9694 16.987 37.6257 16.987C38.0837 16.987 38.45 17.357 38.45 17.8195V32.6935C38.45 37.2815 34.7683 41 30.2257 41H15.6455C10.8832 41 7 37.0965 7 32.2865V12.3435C7 7.7555 10.7 4 15.2609 4H25.0421ZM27.002 27.865H17.0376C16.2866 27.865 15.6639 28.4755 15.6639 29.234C15.6639 29.9925 16.2866 30.6215 17.0376 30.6215H27.002C27.753 30.6215 28.3757 29.9925 28.3757 29.234C28.3757 28.4755 27.753 27.865 27.002 27.865ZM23.2287 18.615H17.0376C16.2866 18.615 15.6639 19.244 15.6639 20.0025C15.6639 20.761 16.2866 21.3715 17.0376 21.3715H23.2287C23.9797 21.3715 24.6025 20.761 24.6025 20.0025C24.6025 19.244 23.9797 18.615 23.2287 18.615ZM28.5538 5.6761C28.5538 4.87875 29.5118 4.48285 30.0594 5.0582C32.0395 7.1376 35.4995 10.7728 37.4338 12.8041C37.9686 13.3647 37.5767 14.2952 36.8055 14.2971C35.2999 14.3027 33.525 14.2971 32.2483 14.2842C30.2224 14.2842 28.5538 12.5988 28.5538 10.5527V5.6761Z" fill="url(#paint0_linear_286_881)"/>
</g>
</g>
</g>
</g>
<defs>
<linearGradient id="paint0_linear_286_881" x1="22.725" y1="41.0006" x2="22.725" y2="4" gradientUnits="userSpaceOnUse">
<stop stop-color="#FEAA42"/>
<stop offset="0.01" stop-color="#FBA33F"/>
<stop offset="0.03" stop-color="#F59838"/>
<stop offset="0.06" stop-color="#F29135"/>
<stop offset="0.15" stop-color="#F18F34"/>
<stop offset="0.23" stop-color="#F28F3E"/>
<stop offset="0.37" stop-color="#F38E5A"/>
<stop offset="0.55" stop-color="#F68D88"/>
<stop offset="0.62" stop-color="#F78C9B"/>
<stop offset="1" stop-color="#F08672"/>
</linearGradient>
</defs>
</svg>
