<svg width="25" height="24" viewBox="0 0 25 24" fill="none" xmlns="http://www.w3.org/2000/svg">
<g id="Notification">
<g id="Iconly/Bold/Notification">
<g id="Notification_2">
<path id="Vector" d="M10.2332 19.2279C10.7331 19.1222 13.7793 19.1222 14.2792 19.2279C14.7065 19.3266 15.1687 19.5573 15.1687 20.0608C15.1438 20.5402 14.8626 20.9653 14.474 21.2352C13.9701 21.628 13.3787 21.8767 12.7606 21.9664C12.4187 22.0107 12.0827 22.0117 11.7528 21.9664C11.1336 21.8767 10.5423 21.628 10.0394 21.2342C9.64977 20.9653 9.36851 20.5402 9.34366 20.0608C9.34366 19.5573 9.80581 19.3266 10.2332 19.2279ZM12.3152 2C14.3954 2 16.5202 2.98702 17.7824 4.62466C18.6014 5.67916 18.9771 6.73265 18.9771 8.3703V8.79633C18.9771 10.0523 19.309 10.7925 20.0395 11.6456C20.5931 12.2741 20.77 13.0808 20.77 13.956C20.77 14.8302 20.4828 15.6601 19.9073 16.3339C19.154 17.1417 18.0915 17.6573 17.0072 17.747C15.4359 17.8809 13.8636 17.9937 12.2705 17.9937C10.6763 17.9937 9.10504 17.9263 7.53374 17.747C6.44845 17.6573 5.38601 17.1417 4.63365 16.3339C4.05821 15.6601 3.76999 14.8302 3.76999 13.956C3.76999 13.0808 3.94789 12.2741 4.50048 11.6456C5.25382 10.7925 5.56391 10.0523 5.56391 8.79633V8.3703C5.56391 6.68834 5.98332 5.58852 6.84698 4.51186C8.13105 2.9417 10.1893 2 12.2258 2H12.3152Z" fill="#C8DBCF"/>
</g>
</g>
</g>
</svg>
